<svg width="41" height="42" viewBox="0 0 41 42" fill="none" xmlns="http://www.w3.org/2000/svg">
<path fill-rule="evenodd" clip-rule="evenodd" d="M20.5 41.5938C31.3731 41.5938 40.1875 32.7794 40.1875 21.9062C40.1875 11.0331 31.3731 2.21875 20.5 2.21875C9.62689 2.21875 0.8125 11.0331 0.8125 21.9062C0.8125 25.4372 1.74203 28.751 3.36972 31.6164L0.8125 41.5938L11.099 39.2085C13.8926 40.7295 17.0953 41.5938 20.5 41.5938ZM20.5 38.565C29.7004 38.565 37.1587 31.1066 37.1587 21.9062C37.1587 12.706 29.7004 5.2476 20.5 5.2476C11.2997 5.2476 3.84135 12.706 3.84135 21.9062C3.84135 25.4586 4.9532 28.7512 6.8479 31.455L5.35577 37.0504L11.0499 35.6269C13.7351 37.4799 16.9908 38.565 20.5 38.565Z" fill="#BFC8D0"/>
<path d="M37.375 20.5C37.375 29.8198 29.8198 37.375 20.5 37.375C16.9453 37.375 13.6472 36.2759 10.9272 34.399L5.15909 35.8409L6.6706 30.1728C4.75129 27.4338 3.625 24.0985 3.625 20.5C3.625 11.1802 11.1802 3.625 20.5 3.625C29.8198 3.625 37.375 11.1802 37.375 20.5Z" fill="url(#paint0_linear_374_55)"/>
<path fill-rule="evenodd" clip-rule="evenodd" d="M20.5 40.1875C31.3731 40.1875 40.1875 31.3731 40.1875 20.5C40.1875 9.62689 31.3731 0.8125 20.5 0.8125C9.62689 0.8125 0.8125 9.62689 0.8125 20.5C0.8125 24.031 1.74203 27.3448 3.36972 30.2102L0.8125 40.1875L11.099 37.8022C13.8926 39.3232 17.0953 40.1875 20.5 40.1875ZM20.5 37.1587C29.7004 37.1587 37.1587 29.7004 37.1587 20.5C37.1587 11.2997 29.7004 3.84135 20.5 3.84135C11.2997 3.84135 3.84135 11.2997 3.84135 20.5C3.84135 24.0523 4.9532 27.3449 6.8479 30.0487L5.35577 35.6442L11.0499 34.2206C13.7351 36.0737 16.9908 37.1587 20.5 37.1587Z" fill="white"/>
<path d="M15.5781 11.3593C15.1101 10.4191 14.392 10.5024 13.6666 10.5024C12.3702 10.5024 10.3486 12.0553 10.3486 14.9454C10.3486 17.314 11.3924 19.9067 14.9093 23.7852C18.3034 27.5284 22.7632 29.4647 26.4656 29.3987C30.168 29.3329 30.9297 26.1468 30.9297 25.0708C30.9297 24.594 30.6337 24.356 30.43 24.2914C29.1683 23.6858 26.8412 22.5576 26.3117 22.3457C25.7823 22.1337 25.5058 22.4205 25.334 22.5764C24.8539 23.0339 23.9021 24.3825 23.5762 24.6858C23.2503 24.9891 22.7645 24.8356 22.5623 24.721C21.8182 24.4224 19.801 23.5251 18.193 21.9663C16.2043 20.0386 16.0876 19.3752 15.713 18.7849C15.4133 18.3125 15.6332 18.0229 15.7429 17.8962C16.1714 17.4019 16.763 16.6385 17.0284 16.2593C17.2936 15.8799 17.0831 15.304 16.9567 14.9454C16.4132 13.4028 15.9526 12.1114 15.5781 11.3593Z" fill="white"/>
<defs>
<linearGradient id="paint0_linear_374_55" x1="35.2656" y1="7.84375" x2="3.625" y2="37.375" gradientUnits="userSpaceOnUse">
<stop stop-color="#5BD066"/>
<stop offset="1" stop-color="#27B43E"/>
</linearGradient>
</defs>
</svg>
